<svg xmlns="http://www.w3.org/2000/svg" viewBox="0 0 128 128" role="img" aria-labelledby="title desc">
  <title id="title">e-Boekhouden MCP</title>
  <desc id="desc">An open accounting book connected to three protocol nodes</desc>
  <rect width="128" height="128" rx="24" fill="#102A2E"/>
  <path d="M22 30c16-6 29-3 42 7v61c-13-10-26-13-42-7V30Z" fill="#F5F7F2"/>
  <path d="M106 30c-16-6-29-3-42 7v61c13-10 26-13 42-7V30Z" fill="#DDECE5"/>
  <path d="M64 37v61" stroke="#147D64" stroke-width="5"/>
  <path d="M32 48h21M32 60h21M75 48h21M75 60h21" stroke="#147D64" stroke-width="4" stroke-linecap="round"/>
  <path d="M38 79h52" stroke="#EAB308" stroke-width="4" stroke-linecap="round"/>
  <circle cx="38" cy="79" r="6" fill="#EAB308"/>
  <circle cx="64" cy="79" r="6" fill="#EAB308"/>
  <circle cx="90" cy="79" r="6" fill="#EAB308"/>
</svg>
